# xmcd
#
# Track frame offsets:
#  150
#  16667
#  45009
#  56784
#  76573
#  92963
#  107261
#  124891
#
# Disc length: 1828 seconds
#
# Revision: 0
# Processed by: cddbd v1.5.1PL2 Copyright (c) Steve Scherf et al.
# Submitted via: Collectorz.com_Music_Collector 6.11
#
DISCID=4d072208
DTITLE=Todd Snider - Wow Hall, Eugene - 05/10/2005 [CD2)
DYEAR=2005
DGENRE=Alt Country
TTITLE0=Enjoy Yourself
TTITLE1=My Generation Part 2
TTITLE2=All My Life
TTITLE3=Easy Money
TTITLE4=Ccrrswam
TTITLE5=Broke
TTITLE6=Blowin' In The Wind
TTITLE7=Crowd Noise
EXTD=
EXTT0=
EXTT1=
EXTT2=
EXTT3=
EXTT4=
EXTT5=
EXTT6=
EXTT7=
PLAYORDER=
